<?xml version="1.0" encoding="utf-8"?>
<svg xmlns="http://www.w3.org/2000/svg" xmlns:xlink="http://www.w3.org/1999/xlink" width="400" height="300" viewBox="0 0 1600 1200">
<defs>
  <clipPath id="clip000">
    <rect x="0" y="0" width="1600" height="1200"/>
  </clipPath>
</defs>
<path clip-path="url(#clip000)" d="M0 1200 L1600 1200 L1600 0 L0 0  Z" fill="#ffffff" fill-rule="evenodd" fill-opacity="1"/>
<defs>
  <clipPath id="clip001">
    <rect x="320" y="0" width="1121" height="1121"/>
  </clipPath>
</defs>
<path clip-path="url(#clip000)" d="M173.385 1016.92 L1552.76 1016.92 L1552.76 47.2441 L173.385 47.2441  Z" fill="#ffffff" fill-rule="evenodd" fill-opacity="1"/>
<defs>
  <clipPath id="clip002">
    <rect x="173" y="47" width="1380" height="971"/>
  </clipPath>
</defs>
<polyline clip-path="url(#clip002)" style="stroke:#000000; stroke-linecap:round; stroke-linejoin:round; stroke-width:2; stroke-opacity:0.1; fill:none" points="177.254,1016.92 177.254,47.2441 "/>
<polyline clip-path="url(#clip002)" style="stroke:#000000; stroke-linecap:round; stroke-linejoin:round; stroke-width:2; stroke-opacity:0.1; fill:none" points="528.955,1016.92 528.955,47.2441 "/>
<polyline clip-path="url(#clip002)" style="stroke:#000000; stroke-linecap:round; stroke-linejoin:round; stroke-width:2; stroke-opacity:0.1; fill:none" points="880.656,1016.92 880.656,47.2441 "/>
<polyline clip-path="url(#clip002)" style="stroke:#000000; stroke-linecap:round; stroke-linejoin:round; stroke-width:2; stroke-opacity:0.1; fill:none" points="1232.36,1016.92 1232.36,47.2441 "/>
<polyline clip-path="url(#clip000)" style="stroke:#000000; stroke-linecap:round; stroke-linejoin:round; stroke-width:4; stroke-opacity:1; fill:none" points="173.385,1016.92 1552.76,1016.92 "/>
<polyline clip-path="url(#clip000)" style="stroke:#000000; stroke-linecap:round; stroke-linejoin:round; stroke-width:4; stroke-opacity:1; fill:none" points="177.254,1016.92 177.254,998.022 "/>
<polyline clip-path="url(#clip000)" style="stroke:#000000; stroke-linecap:round; stroke-linejoin:round; stroke-width:4; stroke-opacity:1; fill:none" points="528.955,1016.92 528.955,998.022 "/>
<polyline clip-path="url(#clip000)" style="stroke:#000000; stroke-linecap:round; stroke-linejoin:round; stroke-width:4; stroke-opacity:1; fill:none" points="880.656,1016.92 880.656,998.022 "/>
<polyline clip-path="url(#clip000)" style="stroke:#000000; stroke-linecap:round; stroke-linejoin:round; stroke-width:4; stroke-opacity:1; fill:none" points="1232.36,1016.92 1232.36,998.022 "/>
<path clip-path="url(#clip000)" d="M177.254 1041.44 Q173.643 1041.44 171.814 1045 Q170.009 1048.54 170.009 1055.67 Q170.009 1062.78 171.814 1066.35 Q173.643 1069.89 177.254 1069.89 Q180.888 1069.89 182.694 1066.35 Q184.522 1062.78 184.522 1055.67 Q184.522 1048.54 182.694 1045 Q180.888 1041.44 177.254 1041.44 M177.254 1037.73 Q183.064 1037.73 186.12 1042.34 Q189.198 1046.92 189.198 1055.67 Q189.198 1064.4 186.12 1069.01 Q183.064 1073.59 177.254 1073.59 Q171.444 1073.59 168.365 1069.01 Q165.31 1064.4 165.31 1055.67 Q165.31 1046.92 168.365 1042.34 Q171.444 1037.73 177.254 1037.73 Z" fill="#000000" fill-rule="nonzero" fill-opacity="1" /><path clip-path="url(#clip000)" d="M503.642 1068.98 L511.281 1068.98 L511.281 1042.62 L502.971 1044.29 L502.971 1040.03 L511.235 1038.36 L515.911 1038.36 L515.911 1068.98 L523.55 1068.98 L523.55 1072.92 L503.642 1072.92 L503.642 1068.98 Z" fill="#000000" fill-rule="nonzero" fill-opacity="1" /><path clip-path="url(#clip000)" d="M542.994 1041.44 Q539.383 1041.44 537.554 1045 Q535.749 1048.54 535.749 1055.67 Q535.749 1062.78 537.554 1066.35 Q539.383 1069.89 542.994 1069.89 Q546.628 1069.89 548.434 1066.35 Q550.263 1062.78 550.263 1055.67 Q550.263 1048.54 548.434 1045 Q546.628 1041.44 542.994 1041.44 M542.994 1037.73 Q548.804 1037.73 551.86 1042.34 Q554.938 1046.92 554.938 1055.67 Q554.938 1064.4 551.86 1069.01 Q548.804 1073.59 542.994 1073.59 Q537.184 1073.59 534.105 1069.01 Q531.05 1064.4 531.05 1055.67 Q531.05 1046.92 534.105 1042.34 Q537.184 1037.73 542.994 1037.73 Z" fill="#000000" fill-rule="nonzero" fill-opacity="1" /><path clip-path="url(#clip000)" d="M859.429 1068.98 L875.748 1068.98 L875.748 1072.92 L853.804 1072.92 L853.804 1068.98 Q856.466 1066.23 861.049 1061.6 Q865.656 1056.95 866.836 1055.61 Q869.082 1053.08 869.961 1051.35 Q870.864 1049.59 870.864 1047.9 Q870.864 1045.14 868.92 1043.41 Q866.998 1041.67 863.896 1041.67 Q861.697 1041.67 859.244 1042.43 Q856.813 1043.2 854.035 1044.75 L854.035 1040.03 Q856.859 1038.89 859.313 1038.31 Q861.767 1037.73 863.804 1037.73 Q869.174 1037.73 872.369 1040.42 Q875.563 1043.11 875.563 1047.6 Q875.563 1049.73 874.753 1051.65 Q873.966 1053.54 871.859 1056.14 Q871.281 1056.81 868.179 1060.03 Q865.077 1063.22 859.429 1068.98 Z" fill="#000000" fill-rule="nonzero" fill-opacity="1" /><path clip-path="url(#clip000)" d="M895.563 1041.44 Q891.952 1041.44 890.123 1045 Q888.318 1048.54 888.318 1055.67 Q888.318 1062.78 890.123 1066.35 Q891.952 1069.89 895.563 1069.89 Q899.197 1069.89 901.003 1066.35 Q902.831 1062.78 902.831 1055.67 Q902.831 1048.54 901.003 1045 Q899.197 1041.44 895.563 1041.44 M895.563 1037.73 Q901.373 1037.73 904.429 1042.34 Q907.507 1046.92 907.507 1055.67 Q907.507 1064.4 904.429 1069.01 Q901.373 1073.59 895.563 1073.59 Q889.753 1073.59 886.674 1069.01 Q883.619 1064.4 883.619 1055.67 Q883.619 1046.92 886.674 1042.34 Q889.753 1037.73 895.563 1037.73 Z" fill="#000000" fill-rule="nonzero" fill-opacity="1" /><path clip-path="url(#clip000)" d="M1221.2 1054.29 Q1224.56 1055 1226.43 1057.27 Q1228.33 1059.54 1228.33 1062.87 Q1228.33 1067.99 1224.81 1070.79 Q1221.29 1073.59 1214.81 1073.59 Q1212.63 1073.59 1210.32 1073.15 Q1208.03 1072.73 1205.57 1071.88 L1205.57 1067.36 Q1207.52 1068.5 1209.83 1069.08 Q1212.15 1069.66 1214.67 1069.66 Q1219.07 1069.66 1221.36 1067.92 Q1223.68 1066.18 1223.68 1062.87 Q1223.68 1059.82 1221.52 1058.11 Q1219.39 1056.37 1215.57 1056.37 L1211.55 1056.37 L1211.55 1052.53 L1215.76 1052.53 Q1219.21 1052.53 1221.04 1051.16 Q1222.87 1049.77 1222.87 1047.18 Q1222.87 1044.52 1220.97 1043.11 Q1219.09 1041.67 1215.57 1041.67 Q1213.65 1041.67 1211.45 1042.09 Q1209.25 1042.5 1206.62 1043.38 L1206.62 1039.22 Q1209.28 1038.48 1211.59 1038.11 Q1213.93 1037.73 1215.99 1037.73 Q1221.31 1037.73 1224.42 1040.17 Q1227.52 1042.57 1227.52 1046.69 Q1227.52 1049.56 1225.87 1051.55 Q1224.23 1053.52 1221.2 1054.29 Z" fill="#000000" fill-rule="nonzero" fill-opacity="1" /><path clip-path="url(#clip000)" d="M1247.19 1041.44 Q1243.58 1041.44 1241.75 1045 Q1239.95 1048.54 1239.95 1055.67 Q1239.95 1062.78 1241.75 1066.35 Q1243.58 1069.89 1247.19 1069.89 Q1250.83 1069.89 1252.63 1066.35 Q1254.46 1062.78 1254.46 1055.67 Q1254.46 1048.54 1252.63 1045 Q1250.83 1041.44 1247.19 1041.44 M1247.19 1037.73 Q1253 1037.73 1256.06 1042.34 Q1259.14 1046.92 1259.14 1055.67 Q1259.14 1064.4 1256.06 1069.01 Q1253 1073.59 1247.19 1073.59 Q1241.38 1073.59 1238.31 1069.01 Q1235.25 1064.4 1235.25 1055.67 Q1235.25 1046.92 1238.31 1042.34 Q1241.38 1037.73 1247.19 1037.73 Z" fill="#000000" fill-rule="nonzero" fill-opacity="1" /><path clip-path="url(#clip000)" d="M776.163 1107.55 L776.163 1125.4 L784.247 1125.4 Q788.735 1125.4 791.186 1123.08 Q793.637 1120.76 793.637 1116.46 Q793.637 1112.19 791.186 1109.87 Q788.735 1107.55 784.247 1107.55 L776.163 1107.55 M769.733 1102.26 L784.247 1102.26 Q792.236 1102.26 796.31 1105.89 Q800.416 1109.49 800.416 1116.46 Q800.416 1123.49 796.31 1127.09 Q792.236 1130.69 784.247 1130.69 L776.163 1130.69 L776.163 1149.78 L769.733 1149.78 L769.733 1102.26 Z" fill="#000000" fill-rule="nonzero" fill-opacity="1" /><path clip-path="url(#clip000)" d="M828.298 1119.61 Q827.311 1119.04 826.134 1118.78 Q824.988 1118.5 823.587 1118.5 Q818.622 1118.5 815.948 1121.74 Q813.307 1124.96 813.307 1131.01 L813.307 1149.78 L807.418 1149.78 L807.418 1114.14 L813.307 1114.14 L813.307 1119.67 Q815.153 1116.43 818.113 1114.87 Q821.073 1113.28 825.306 1113.28 Q825.911 1113.28 826.643 1113.37 Q827.375 1113.44 828.266 1113.59 L828.298 1119.61 Z" fill="#000000" fill-rule="nonzero" fill-opacity="1" /><path clip-path="url(#clip000)" d="M863.5 1130.5 L863.5 1133.36 L836.573 1133.36 Q836.955 1139.41 840.202 1142.59 Q843.48 1145.74 849.305 1145.74 Q852.679 1145.74 855.83 1144.91 Q859.012 1144.09 862.132 1142.43 L862.132 1147.97 Q858.981 1149.31 855.67 1150.01 Q852.36 1150.71 848.955 1150.71 Q840.425 1150.71 835.427 1145.74 Q830.462 1140.78 830.462 1132.31 Q830.462 1123.56 835.173 1118.43 Q839.915 1113.28 847.936 1113.28 Q855.129 1113.28 859.299 1117.92 Q863.5 1122.54 863.5 1130.5 M857.644 1128.78 Q857.58 1123.97 854.938 1121.11 Q852.328 1118.24 848 1118.24 Q843.098 1118.24 840.138 1121.01 Q837.21 1123.78 836.764 1128.81 L857.644 1128.78 Z" fill="#000000" fill-rule="nonzero" fill-opacity="1" /><path clip-path="url(#clip000)" d="M878.905 1104.01 L878.905 1114.14 L890.968 1114.14 L890.968 1118.69 L878.905 1118.69 L878.905 1138.04 Q878.905 1142.4 880.083 1143.64 Q881.292 1144.88 884.953 1144.88 L890.968 1144.88 L890.968 1149.78 L884.953 1149.78 Q878.173 1149.78 875.595 1147.27 Q873.017 1144.72 873.017 1138.04 L873.017 1118.69 L868.72 1118.69 L868.72 1114.14 L873.017 1114.14 L873.017 1104.01 L878.905 1104.01 Z" fill="#000000" fill-rule="nonzero" fill-opacity="1" /><path clip-path="url(#clip000)" d="M912.484 1118.24 Q907.774 1118.24 905.036 1121.93 Q902.299 1125.59 902.299 1131.99 Q902.299 1138.39 905.005 1142.08 Q907.742 1145.74 912.484 1145.74 Q917.163 1145.74 919.9 1142.05 Q922.638 1138.36 922.638 1131.99 Q922.638 1125.66 919.9 1121.97 Q917.163 1118.24 912.484 1118.24 M912.484 1113.28 Q920.123 1113.28 924.484 1118.24 Q928.844 1123.21 928.844 1131.99 Q928.844 1140.74 924.484 1145.74 Q920.123 1150.71 912.484 1150.71 Q904.814 1150.71 900.453 1145.74 Q896.124 1140.74 896.124 1131.99 Q896.124 1123.21 900.453 1118.24 Q904.814 1113.28 912.484 1113.28 Z" fill="#000000" fill-rule="nonzero" fill-opacity="1" /><path clip-path="url(#clip000)" d="M944.345 1104.01 L944.345 1114.14 L956.408 1114.14 L956.408 1118.69 L944.345 1118.69 L944.345 1138.04 Q944.345 1142.4 945.522 1143.64 Q946.732 1144.88 950.392 1144.88 L956.408 1144.88 L956.408 1149.78 L950.392 1149.78 Q943.613 1149.78 941.035 1147.27 Q938.456 1144.72 938.456 1138.04 L938.456 1118.69 L934.16 1118.69 L934.16 1114.14 L938.456 1114.14 L938.456 1104.01 L944.345 1104.01 Z" fill="#000000" fill-rule="nonzero" fill-opacity="1" /><polyline clip-path="url(#clip002)" style="stroke:#000000; stroke-linecap:round; stroke-linejoin:round; stroke-width:2; stroke-opacity:0.1; fill:none" points="173.385,888.198 1552.76,888.198 "/>
<polyline clip-path="url(#clip002)" style="stroke:#000000; stroke-linecap:round; stroke-linejoin:round; stroke-width:2; stroke-opacity:0.1; fill:none" points="173.385,669.837 1552.76,669.837 "/>
<polyline clip-path="url(#clip002)" style="stroke:#000000; stroke-linecap:round; stroke-linejoin:round; stroke-width:2; stroke-opacity:0.1; fill:none" points="173.385,451.476 1552.76,451.476 "/>
<polyline clip-path="url(#clip002)" style="stroke:#000000; stroke-linecap:round; stroke-linejoin:round; stroke-width:2; stroke-opacity:0.1; fill:none" points="173.385,233.115 1552.76,233.115 "/>
<polyline clip-path="url(#clip000)" style="stroke:#000000; stroke-linecap:round; stroke-linejoin:round; stroke-width:4; stroke-opacity:1; fill:none" points="173.385,1016.92 173.385,47.2441 "/>
<polyline clip-path="url(#clip000)" style="stroke:#000000; stroke-linecap:round; stroke-linejoin:round; stroke-width:4; stroke-opacity:1; fill:none" points="173.385,888.198 192.283,888.198 "/>
<polyline clip-path="url(#clip000)" style="stroke:#000000; stroke-linecap:round; stroke-linejoin:round; stroke-width:4; stroke-opacity:1; fill:none" points="173.385,669.837 192.283,669.837 "/>
<polyline clip-path="url(#clip000)" style="stroke:#000000; stroke-linecap:round; stroke-linejoin:round; stroke-width:4; stroke-opacity:1; fill:none" points="173.385,451.476 192.283,451.476 "/>
<polyline clip-path="url(#clip000)" style="stroke:#000000; stroke-linecap:round; stroke-linejoin:round; stroke-width:4; stroke-opacity:1; fill:none" points="173.385,233.115 192.283,233.115 "/>
<path clip-path="url(#clip000)" d="M137.441 873.997 Q133.83 873.997 132.001 877.562 Q130.195 881.103 130.195 888.233 Q130.195 895.339 132.001 898.904 Q133.83 902.446 137.441 902.446 Q141.075 902.446 142.881 898.904 Q144.709 895.339 144.709 888.233 Q144.709 881.103 142.881 877.562 Q141.075 873.997 137.441 873.997 M137.441 870.293 Q143.251 870.293 146.307 874.9 Q149.385 879.483 149.385 888.233 Q149.385 896.96 146.307 901.566 Q143.251 906.149 137.441 906.149 Q131.631 906.149 128.552 901.566 Q125.496 896.96 125.496 888.233 Q125.496 879.483 128.552 874.9 Q131.631 870.293 137.441 870.293 Z" fill="#000000" fill-rule="nonzero" fill-opacity="1" /><path clip-path="url(#clip000)" d="M133.066 683.182 L149.385 683.182 L149.385 687.117 L127.441 687.117 L127.441 683.182 Q130.103 680.427 134.686 675.798 Q139.293 671.145 140.473 669.802 Q142.719 667.279 143.598 665.543 Q144.501 663.784 144.501 662.094 Q144.501 659.34 142.557 657.603 Q140.635 655.867 137.533 655.867 Q135.334 655.867 132.881 656.631 Q130.45 657.395 127.672 658.946 L127.672 654.224 Q130.496 653.09 132.95 652.511 Q135.404 651.932 137.441 651.932 Q142.811 651.932 146.006 654.617 Q149.2 657.302 149.2 661.793 Q149.2 663.923 148.39 665.844 Q147.603 667.742 145.496 670.335 Q144.918 671.006 141.816 674.224 Q138.714 677.418 133.066 683.182 Z" fill="#000000" fill-rule="nonzero" fill-opacity="1" /><path clip-path="url(#clip000)" d="M139.802 438.27 L127.996 456.719 L139.802 456.719 L139.802 438.27 M138.575 434.196 L144.455 434.196 L144.455 456.719 L149.385 456.719 L149.385 460.608 L144.455 460.608 L144.455 468.756 L139.802 468.756 L139.802 460.608 L124.2 460.608 L124.2 456.094 L138.575 434.196 Z" fill="#000000" fill-rule="nonzero" fill-opacity="1" /><path clip-path="url(#clip000)" d="M137.857 231.252 Q134.709 231.252 132.858 233.404 Q131.029 235.557 131.029 239.307 Q131.029 243.034 132.858 245.21 Q134.709 247.363 137.857 247.363 Q141.006 247.363 142.834 245.21 Q144.686 243.034 144.686 239.307 Q144.686 235.557 142.834 233.404 Q141.006 231.252 137.857 231.252 M147.14 216.599 L147.14 220.858 Q145.381 220.025 143.575 219.585 Q141.793 219.145 140.033 219.145 Q135.404 219.145 132.95 222.27 Q130.52 225.395 130.172 231.715 Q131.538 229.701 133.598 228.636 Q135.658 227.548 138.135 227.548 Q143.344 227.548 146.353 230.719 Q149.385 233.867 149.385 239.307 Q149.385 244.631 146.237 247.849 Q143.089 251.066 137.857 251.066 Q131.862 251.066 128.691 246.483 Q125.52 241.877 125.52 233.15 Q125.52 224.955 129.408 220.094 Q133.297 215.21 139.848 215.21 Q141.607 215.21 143.39 215.557 Q145.195 215.905 147.14 216.599 Z" fill="#000000" fill-rule="nonzero" fill-opacity="1" /><path clip-path="url(#clip000)" d="M79.1647 567.284 L66.4014 567.284 L66.4014 577.788 L61.1179 577.788 L61.1179 560.919 L81.52 560.919 Q84.1618 564.643 85.5304 569.13 Q86.8672 573.618 86.8672 578.711 Q86.8672 589.851 80.3742 596.153 Q73.8493 602.423 62.2319 602.423 Q50.5827 602.423 44.0896 596.153 Q37.5648 589.851 37.5648 578.711 Q37.5648 574.064 38.7106 569.894 Q39.8564 565.693 42.0844 562.16 L48.9276 562.16 Q45.9039 565.725 44.3761 569.735 Q42.8483 573.746 42.8483 578.17 Q42.8483 586.891 47.7181 591.283 Q52.5879 595.644 62.2319 595.644 Q71.8441 595.644 76.7139 591.283 Q81.5836 586.891 81.5836 578.17 Q81.5836 574.764 81.0107 572.09 Q80.406 569.417 79.1647 567.284 Z" fill="#000000" fill-rule="nonzero" fill-opacity="1" /><path clip-path="url(#clip000)" d="M68.0247 533.228 Q68.0247 540.326 69.6479 543.063 Q71.2712 545.8 75.1861 545.8 Q78.3053 545.8 80.1514 543.763 Q81.9656 541.694 81.9656 538.161 Q81.9656 533.291 78.5281 530.363 Q75.0588 527.403 69.3297 527.403 L68.0247 527.403 L68.0247 533.228 M65.6057 521.547 L85.9442 521.547 L85.9442 527.403 L80.5333 527.403 Q83.7798 529.408 85.3394 532.4 Q86.8672 535.392 86.8672 539.721 Q86.8672 545.195 83.8116 548.442 Q80.7243 551.657 75.5681 551.657 Q69.5525 551.657 66.4969 547.646 Q63.4414 543.604 63.4414 535.615 L63.4414 527.403 L62.8685 527.403 Q58.8262 527.403 56.6301 530.077 Q54.4021 532.719 54.4021 537.525 Q54.4021 540.58 55.1341 543.477 Q55.8662 546.373 57.3303 549.047 L51.9195 549.047 Q50.6781 545.832 50.0734 542.808 Q49.4368 539.784 49.4368 536.92 Q49.4368 529.186 53.4472 525.366 Q57.4576 521.547 65.6057 521.547 Z" fill="#000000" fill-rule="nonzero" fill-opacity="1" /><path clip-path="url(#clip000)" d="M50.2962 509.484 L50.2962 503.627 L85.9442 503.627 L85.9442 509.484 L50.2962 509.484 M36.419 509.484 L36.419 503.627 L43.835 503.627 L43.835 509.484 L36.419 509.484 Z" fill="#000000" fill-rule="nonzero" fill-opacity="1" /><path clip-path="url(#clip000)" d="M64.4281 461.741 L85.9442 461.741 L85.9442 467.597 L64.619 467.597 Q59.5583 467.597 57.0438 469.571 Q54.5294 471.544 54.5294 475.491 Q54.5294 480.233 57.5531 482.971 Q60.5768 485.708 65.7967 485.708 L85.9442 485.708 L85.9442 491.596 L50.2962 491.596 L50.2962 485.708 L55.8344 485.708 Q52.6197 483.607 51.0283 480.774 Q49.4368 477.91 49.4368 474.186 Q49.4368 468.043 53.2563 464.892 Q57.0438 461.741 64.4281 461.741 Z" fill="#000000" fill-rule="nonzero" fill-opacity="1" /><path clip-path="url(#clip002)" d="M212.424 227.481 L280.913 262.001 L349.402 296.853 L417.891 332.111 L486.38 367.86 L554.87 404.198 L623.359 441.23 L691.848 479.052 L760.337 517.741 L828.826 557.335 L897.315 597.828 L965.804 639.168 L1034.29 681.27 L1102.78 724.034 L1171.27 767.357 L1239.76 811.144 L1308.25 855.312 L1376.74 899.793 L1445.23 944.53 L1513.72 989.476 L1513.72 812.037 L1445.23 778.071 L1376.74 743.895 L1308.25 709.462 L1239.76 674.718 L1171.27 639.592 L1102.78 604.002 L1034.29 567.853 L965.804 531.042 L897.315 493.469 L828.826 455.049 L760.337 415.731 L691.848 375.507 L623.359 334.416 L554.87 292.535 L486.38 249.961 L417.891 206.797 L349.402 163.141 L280.913 119.08 L212.424 74.6877  Z" fill="#808080" fill-rule="evenodd" fill-opacity="0.5"/>
<polyline clip-path="url(#clip002)" style="stroke:#808080; stroke-linecap:round; stroke-linejoin:round; stroke-width:4; stroke-opacity:1; fill:none" points="212.424,151.084 280.913,190.541 349.402,229.997 417.891,269.454 486.38,308.91 554.87,348.367 623.359,387.823 691.848,427.279 760.337,466.736 828.826,506.192 897.315,545.649 965.804,585.105 1034.29,624.562 1102.78,664.018 1171.27,703.475 1239.76,742.931 1308.25,782.387 1376.74,821.844 1445.23,861.3 1513.72,900.757 "/>
<polyline clip-path="url(#clip002)" style="stroke:#e26f46; stroke-linecap:round; stroke-linejoin:round; stroke-width:4; stroke-opacity:1; fill:none" points="212.424,151.084 280.913,190.541 349.402,229.997 417.891,269.454 486.38,308.91 554.87,348.367 623.359,387.823 691.848,427.279 760.337,466.736 828.826,506.192 897.315,545.649 965.804,585.105 1034.29,624.562 1102.78,664.018 1171.27,703.475 1239.76,742.931 1308.25,782.387 1376.74,821.844 1445.23,861.3 1513.72,900.757 "/>
</svg>
